<svg width="32" height="32" viewBox="0 0 32 32" fill="none" xmlns="http://www.w3.org/2000/svg">
<path fill-rule="evenodd" clip-rule="evenodd" d="M7.99996 11.3334C7.99996 9.4924 9.49234 8.00002 11.3333 8.00002C13.1742 8.00002 14.6666 9.4924 14.6666 11.3334C14.6666 13.1743 13.1742 14.6667 11.3333 14.6667C9.49234 14.6667 7.99996 13.1743 7.99996 11.3334ZM11.3333 10.6667C10.9651 10.6667 10.6666 10.9652 10.6666 11.3334C10.6666 11.7015 10.9651 12 11.3333 12C11.7015 12 12 11.7015 12 11.3334C12 10.9652 11.7015 10.6667 11.3333 10.6667Z" fill="#2D3648"/>
<path fill-rule="evenodd" clip-rule="evenodd" d="M2.66663 6.66669C2.66663 4.45755 4.45749 2.66669 6.66663 2.66669H25.3333C27.5424 2.66669 29.3333 4.45755 29.3333 6.66669V25.3334C29.3333 27.5425 27.5424 29.3334 25.3333 29.3334H6.66663C4.45749 29.3334 2.66663 27.5425 2.66663 25.3334V6.66669ZM6.66663 5.33335C5.93025 5.33335 5.33329 5.93031 5.33329 6.66669V25.3334C5.33329 25.9051 5.69319 26.3928 6.19882 26.5823L20.3906 12.3905C20.9113 11.8698 21.7555 11.8698 22.2762 12.3905L26.6666 16.781V6.66669C26.6666 5.93031 26.0697 5.33335 25.3333 5.33335H6.66663ZM26.6666 20.5522L21.3334 15.219L9.88568 26.6667H25.3333C26.0697 26.6667 26.6666 26.0697 26.6666 25.3334V20.5522Z" fill="#2D3648"/>
</svg>
